<?xml version="1.0" standalone="no"?>
<!DOCTYPE svg PUBLIC "-//W3C//DTD SVG 20010904//EN"
 "http://www.w3.org/TR/2001/REC-SVG-20010904/DTD/svg10.dtd">
<svg version="1.0" xmlns="http://www.w3.org/2000/svg"
 width="398.000000pt" height="398.000000pt" viewBox="0 0 398.000000 398.000000"
 preserveAspectRatio="xMidYMid meet">
<metadata>
Created by potrace 1.14, written by Peter Selinger 2001-2017
</metadata>
<g transform="translate(0.000000,398.000000) scale(0.100000,-0.100000)"
fill="#000000" stroke="none">
<path d="M2150 3709 c-14 -5 -33 -22 -42 -37 -21 -35 -107 -120 -129 -127 -10
-3 -46 6 -81 20 -84 35 -186 52 -317 53 -241 2 -394 -69 -420 -196 -14 -67
-14 -70 2 -69 6 0 36 -1 64 -1 l53 -2 -6 -56 -7 -57 47 7 c25 3 66 9 91 12
l45 6 1 -81 c1 -44 3 -94 4 -111 1 -16 3 -51 4 -76 1 -45 2 -45 29 -39 l29 6
-18 -71 c-45 -175 -61 -392 -38 -516 13 -70 68 -191 132 -289 l46 -70 -37 -8
c-20 -4 -42 -8 -49 -9 -7 -1 -11 -4 -10 -7 1 -3 -6 -17 -15 -31 -9 -14 -18
-44 -19 -68 -3 -36 -8 -46 -31 -58 -25 -13 -28 -13 -28 1 0 10 -5 13 -12 9 -8
-5 -9 -2 -5 10 4 10 3 15 -3 11 -6 -3 -10 -13 -10 -21 0 -8 -5 -14 -11 -14 -5
0 -8 4 -5 9 7 11 -21 8 -31 -4 -4 -4 -2 -5 5 -1 6 4 12 3 12 -2 0 -5 -9 -12
-19 -15 -15 -3 -24 3 -35 26 -8 17 -12 35 -9 41 3 5 1 6 -5 2 -6 -3 -13 -2
-17 4 -6 10 -58 3 -86 -11 -12 -6 -21 -2 -31 13 l-15 22 -41 -22 c-23 -12 -42
-19 -42 -16 0 3 -7 -2 -15 -10 -9 -9 -22 -19 -29 -23 -22 -14 -97 -115 -123
-167 -28 -56 -69 -207 -80 -299 -4 -34 -7 -127 -7 -207 1 -171 16 -241 79
-375 137 -291 422 -486 825 -565 74 -14 130 -18 250 -15 165 3 181 5 281 30
363 91 595 259 738 535 66 127 91 226 96 377 4 163 -35 339 -106 469 -67 123
-128 196 -167 202 -33 4 -113 47 -105 56 4 4 0 4 -9 1 -9 -4 -25 -2 -35 3 -13
8 -24 5 -41 -8 -13 -11 -29 -17 -36 -14 -8 3 -17 1 -21 -5 -4 -7 1 -8 12 -4
16 6 16 5 4 -10 -7 -9 -17 -14 -22 -11 -5 3 -9 1 -9 -5 0 -6 -8 -15 -19 -20
-15 -9 -28 -4 -64 24 -41 31 -45 38 -43 70 2 20 0 38 -5 40 -4 3 -10 23 -14
45 -4 22 -11 42 -16 46 -15 9 1 24 26 24 13 0 27 5 30 10 4 6 3 10 -2 9 -37
-6 -49 2 -45 30 3 19 9 28 17 25 7 -3 26 1 42 10 20 11 23 15 11 16 -10 0 -27
9 -37 19 -24 24 -20 58 19 163 56 150 59 221 14 420 -13 59 -24 109 -24 112 0
4 27 -14 61 -38 l61 -44 46 52 c26 29 68 76 94 106 50 56 43 53 153 59 16 1
25 14 40 59 10 31 22 62 26 67 4 6 9 12 11 15 5 8 -44 72 -94 122 -47 46 -159
128 -176 128 -5 0 -15 6 -21 14 -6 8 -22 16 -34 19 -12 2 -49 12 -81 21 -64
17 -155 29 -223 30 -25 0 -43 5 -43 12 0 15 58 94 69 94 5 0 11 9 14 19 7 26
-46 76 -102 96 -49 17 -74 18 -111 4z m-358 -1644 l-17 -23 -22 50 c-13 28
-23 53 -23 55 0 3 18 -10 40 -27 39 -31 40 -32 22 -55z"/>
<path d="M2490 1920 c0 -5 5 -10 11 -10 5 0 7 5 4 10 -3 6 -8 10 -11 10 -2 0
-4 -4 -4 -10z"/>
<path d="M2526 1918 c3 -5 10 -6 15 -3 13 9 11 12 -6 12 -8 0 -12 -4 -9 -9z"/>
<path d="M1376 1893 c-6 -14 -5 -15 5 -6 7 7 10 15 7 18 -3 3 -9 -2 -12 -12z"/>
<path d="M1436 1893 c-6 -14 -5 -15 5 -6 7 7 10 15 7 18 -3 3 -9 -2 -12 -12z"/>
<path d="M1456 1866 c3 -8 14 -14 24 -13 17 1 18 12 2 12 -4 0 -13 4 -19 8 -9
6 -11 3 -7 -7z"/>
<path d="M2507 1833 c3 -7 6 -13 8 -13 2 0 5 6 8 13 3 8 -1 14 -8 14 -7 0 -11
-6 -8 -14z"/>
</g>
</svg>
